<svg xmlns="http://www.w3.org/2000/svg" xmlns:xlink="http://www.w3.org/1999/xlink" viewBox="0 0 372.88 322.38"><defs><style>.cls-1{stroke:#231f20;fill:url(#linear-gradient);}.cls-1,.cls-2{stroke-width:0.25px;}.cls-2{stroke:#1e6ea6;fill:url(#linear-gradient-2);}</style><linearGradient id="linear-gradient" x1="217.34" y1="222.47" x2="-0.44" y2="96.74" gradientUnits="userSpaceOnUse"><stop offset="0" stop-color="#fff"/><stop offset="0.23" stop-color="#fcfdfe"/><stop offset="0.37" stop-color="#f4f7f9"/><stop offset="0.48" stop-color="#e6edf2"/><stop offset="0.58" stop-color="#d1dee7"/><stop offset="0.68" stop-color="#b7cbd9"/><stop offset="0.77" stop-color="#96b4c7"/><stop offset="0.85" stop-color="#6f98b3"/><stop offset="0.92" stop-color="#44789c"/><stop offset="1" stop-color="#125582"/><stop offset="1" stop-color="#115481"/></linearGradient><linearGradient id="linear-gradient-2" x1="372.82" y1="161.36" x2="191.67" y2="161.36" gradientUnits="userSpaceOnUse"><stop offset="0" stop-color="#fff"/><stop offset="0.01" stop-color="#e5e5e5"/><stop offset="0.03" stop-color="#bdbcbc"/><stop offset="0.06" stop-color="#989697"/><stop offset="0.08" stop-color="#787676"/><stop offset="0.11" stop-color="#5d5a5b"/><stop offset="0.14" stop-color="#484445"/><stop offset="0.18" stop-color="#373334"/><stop offset="0.22" stop-color="#2c2829"/><stop offset="0.29" stop-color="#252122"/><stop offset="0.46" stop-color="#231f20"/></linearGradient></defs><title>Wings</title><g id="Layer_2" data-name="Layer 2"><g id="Shield_" data-name="Shield?"><path class="cls-1" d="M151.06,192.34a37.74,37.74,0,0,1,8.61,22.17,14.67,14.67,0,0,0-4.17-5.42c-6.65-5.4-25.67-15.56-32.21-31.26-2.84-8-3-18.08,4.25-29.39,18.07-28,19.09-28.3,4.09-52,0,0,5.11,12.13,4.09,17.62,0,0-.68-6.93-8.86-14.73s-23.53-28.87-28-55.44a78.89,78.89,0,0,0-3.43,15.51A406.35,406.35,0,0,1,73.63.43,93.57,93.57,0,0,0,71,53.19,166.68,166.68,0,0,1,59.69,5.79s-2.64,24.9,6.1,50.14A283.42,283.42,0,0,1,49.88,28.25c-3.77,21.58,0,39.06,7.72,53.36A189.49,189.49,0,0,1,31,42.57,142.66,142.66,0,0,0,51.21,82.08,239.32,239.32,0,0,1,30.68,61.29C30.47,81.4,36.92,96,46.62,106.88A208.84,208.84,0,0,1,12.91,73.62a154.91,154.91,0,0,0,30.38,37.14A240.42,240.42,0,0,1,17,96.43c3.41,18.4,12.88,29.94,25,37.48A241,241,0,0,1,1.2,111.78a179,179,0,0,0,37.7,25.83,281.93,281.93,0,0,1-29.31-6.72,49,49,0,0,0,27.6,26.31A269.11,269.11,0,0,1,.06,147.78,201.88,201.88,0,0,0,42.72,162.5c-19.82.94-33.93.07-33.93.07,8.55,10.28,19.4,15.57,31.06,17.86A277.48,277.48,0,0,1,.5,176.87a211.44,211.44,0,0,0,46,8c-18.43,3.92-31.85,5.41-31.85,5.41,12.55,9,26.55,11.69,40.36,11.12a276,276,0,0,1-44.12,3.94,215.52,215.52,0,0,0,41.58.55c-14.89,5.15-25.67,7.72-25.67,7.72A71.32,71.32,0,0,0,66,219.14a211.25,211.25,0,0,1-37.64,9.49A170.39,170.39,0,0,0,70,221.82,227.11,227.11,0,0,1,44.58,233c15.74,4.68,29.57,4.21,41.44.8A164.79,164.79,0,0,1,49.5,245.2s19.76-1,38.4-8.43a148.57,148.57,0,0,1-20.81,12.66c15.79,3.37,28.33,2,38.29-2.12a159.31,159.31,0,0,1-25.23,13,129.94,129.94,0,0,0,30.37-12.55A97.79,97.79,0,0,1,93.17,264c16.66,2.71,28.14-.09,36.08-6.14a141.27,141.27,0,0,1-18.48,16.82,117.25,117.25,0,0,0,21.85-16.05c-5.14,12.15-11.07,18.83-11.07,18.83,16.74,1.94,26.2-2.8,31.28-11.25A117.6,117.6,0,0,1,142,289.73a97.94,97.94,0,0,0,12.89-20.27c-1.1,13-3.91,20.46-4,20.71a24.06,24.06,0,0,0,11.14-3.87c-2.1,24.24-12.69,36-12.69,36C170.5,301.5,172.2,281,172.2,281a82.35,82.35,0,0,1-6.82,31.48C208,238.83,151.06,192.34,151.06,192.34Z"/><path class="cls-2" d="M221.81,192.34a37.72,37.72,0,0,0-8.6,22.17,14.57,14.57,0,0,1,4.17-5.42c6.65-5.4,25.67-15.56,32.21-31.26,2.84-8,3-18.08-4.25-29.39-18.07-28-19.09-28.3-4.09-52,0,0-5.12,12.13-4.09,17.62,0,0,.68-6.93,8.86-14.73s23.53-28.87,28-55.44a79.77,79.77,0,0,1,3.43,15.51,407.78,407.78,0,0,0,21.84-59,93.57,93.57,0,0,1,2.59,52.76,166.72,166.72,0,0,0,11.34-47.4s2.64,24.9-6.09,50.14A283.42,283.42,0,0,0,323,28.25c3.77,21.58,0,39.06-7.72,53.36a189.49,189.49,0,0,0,26.63-39,142.66,142.66,0,0,1-20.24,39.51A239.32,239.32,0,0,0,342.2,61.29C342.41,81.4,336,96,326.25,106.88A208.84,208.84,0,0,0,360,73.62a154.71,154.71,0,0,1-30.37,37.14,240.42,240.42,0,0,0,26.27-14.33c-3.42,18.4-12.89,29.94-24.95,37.48a241,241,0,0,0,40.76-22.13A178.79,178.79,0,0,1,334,137.61a281.93,281.93,0,0,0,29.31-6.72,49.05,49.05,0,0,1-27.6,26.31,269.11,269.11,0,0,0,37.13-9.42,201.88,201.88,0,0,1-42.66,14.72c19.82.94,33.92.07,33.92.07-8.54,10.28-19.39,15.57-31.05,17.86a277.6,277.6,0,0,0,39.35-3.56,211.59,211.59,0,0,1-46,8c18.42,3.92,31.85,5.41,31.85,5.41-12.56,9-26.55,11.69-40.37,11.12A276.1,276.1,0,0,0,362,205.3a215.52,215.52,0,0,1-41.58.55c14.89,5.15,25.66,7.72,25.66,7.72a71.31,71.31,0,0,1-39.18,5.57,211.71,211.71,0,0,0,37.64,9.49,170.34,170.34,0,0,1-41.69-6.81A227.11,227.11,0,0,0,328.3,233c-15.74,4.68-29.58,4.21-41.45.8a165.08,165.08,0,0,0,36.53,11.4s-19.76-1-38.4-8.43a148.57,148.57,0,0,0,20.81,12.66c-15.79,3.37-28.33,2-38.29-2.12a159.6,159.6,0,0,0,25.22,13,130,130,0,0,1-30.36-12.55A97.39,97.39,0,0,0,279.71,264c-16.66,2.71-28.15-.09-36.09-6.14a142.59,142.59,0,0,0,18.48,16.82,117,117,0,0,1-21.84-16.05c5.13,12.15,11.06,18.83,11.06,18.83-16.73,1.94-26.2-2.8-31.27-11.25a117,117,0,0,0,10.8,23.56A97.94,97.94,0,0,1,218,269.46c1.1,13,3.91,20.46,4,20.71a24,24,0,0,1-11.14-3.87c2.09,24.24,12.69,36,12.69,36C202.38,301.5,200.67,281,200.67,281a82.35,82.35,0,0,0,6.82,31.48C164.88,238.83,221.81,192.34,221.81,192.34Z"/></g></g></svg>